<svg xmlns="http://www.w3.org/2000/svg" version="1.1" xmlns:xlink="http://www.w3.org/1999/xlink" xmlns:svgjs="http://svgjs.dev/svgjs" width="1500" height="371" viewBox="0 0 1500 371"><g transform="matrix(1,0,0,1,-0.9090909090909918,-1.1194626236811018)"><svg viewBox="0 0 396 98" data-background-color="#000000" preserveAspectRatio="xMidYMid meet" height="371" width="1500" xmlns="http://www.w3.org/2000/svg" xmlns:xlink="http://www.w3.org/1999/xlink"><g id="tight-bounds" transform="matrix(1,0,0,1,0.2400000000000091,0.2957071081421816)"><svg viewBox="0 0 395.52 97.40858578371562" height="97.40858578371562" width="395.52"><g><svg viewBox="0 0 555.778671706616 136.87705911127992" height="97.40858578371562" width="395.52"><g transform="matrix(1,0,0,1,0,18.917162293961262)"><svg viewBox="0 0 395.52000000000004 99.0427345233574" height="99.0427345233574" width="395.52000000000004"><g id="textblocktransform"><svg viewBox="0 0 395.52000000000004 99.0427345233574" height="99.0427345233574" width="395.52000000000004" id="textblock"><g><svg viewBox="0 0 395.52000000000004 99.0427345233574" height="99.0427345233574" width="395.52000000000004"><g transform="matrix(1,0,0,1,0,0)"><svg width="395.52000000000004" viewBox="0.81 -36.84 192.82 48.290000000000006" height="99.0427345233574" data-palette-color="url(#af947b13-27a6-494e-b3fd-601f89cd3599)"></svg></g></svg></g></svg></g></svg></g><g transform="matrix(1,0,0,1,418.90161259533613,0)"><svg viewBox="0 0 136.87705911127992 136.87705911127992" height="136.87705911127992" width="136.87705911127992"><g data-palette-color="url(#25850716-3bc1-4478-9cde-10a54f75c57a)"></g></svg></g></svg></g><defs></defs><mask id="b7075167-8bba-4071-a977-b13482bd1f73"><g id="SvgjsG3325"><svg viewBox="0 0 395.52 97.40858578371562" height="97.40858578371562" width="395.52"><g><svg viewBox="0 0 555.778671706616 136.87705911127992" height="97.40858578371562" width="395.52"><g transform="matrix(1,0,0,1,0,18.917162293961262)"><svg viewBox="0 0 395.52000000000004 99.0427345233574" height="99.0427345233574" width="395.52000000000004"><g id="SvgjsG3324"><svg viewBox="0 0 395.52000000000004 99.0427345233574" height="99.0427345233574" width="395.52000000000004" id="SvgjsSvg3323"><g><svg viewBox="0 0 395.52000000000004 99.0427345233574" height="99.0427345233574" width="395.52000000000004"><g transform="matrix(1,0,0,1,0,0)"><svg width="395.52000000000004" viewBox="0.81 -36.84 192.82 48.290000000000006" height="99.0427345233574" data-palette-color="url(#af947b13-27a6-494e-b3fd-601f89cd3599)"><path d="M29.15-33.54L29.15-25.56 26.2-25.56 25.49-30.25Q25.32-31.1 24.66-31.1L24.66-31.1 17.5-31.1 17.5-3.44Q17.5-3.08 17.76-2.73 18.02-2.39 18.55-2.34L18.55-2.34 21.75-2.15 21.75 0 8.2 0 8.2-2.15 11.4-2.34Q11.94-2.39 12.19-2.73 12.45-3.08 12.45-3.44L12.45-3.44 12.45-31.1 5.25-31.1Q4.52-31.1 4.39-30.25L4.39-30.25 3.71-25.56 0.81-25.56 0.81-33.54 29.15-33.54ZM57.49-1.95L57.49 0 46.36 0 46.36-1.95 48.41-2.1Q48.85-2.15 49.18-2.44 49.51-2.73 49.51-3.2L49.51-3.2 49.51-16.09Q49.51-18.24 48.48-19.64 47.46-21.04 44.55-21.04L44.55-21.04Q43.23-21.04 41.71-20.63 40.18-20.21 39.11-19.6L39.11-19.6 39.11-3.2Q39.11-2.17 40.11-2.1L40.11-2.1 42.26-1.95 42.26 0 31 0 31-1.95 33.4-2.1Q34.45-2.17 34.45-3.2L34.45-3.2 34.45-33.25 30.71-33.25 30.71-34.91 37.11-36.84 39.11-36.84 39.11-21.61Q40.01-22.17 41.45-22.89 42.89-23.61 44.48-24.16 46.07-24.71 47.36-24.71L47.36-24.71Q50.24-24.71 52.19-22.85 54.15-21 54.15-17.14L54.15-17.14 54.15-3.2Q54.15-2.73 54.48-2.44 54.81-2.15 55.25-2.1L55.25-2.1 57.49-1.95ZM84.15-12.01L84.15-12.01Q84.15-8.47 82.69-5.6 81.22-2.73 78.55-1.06 75.87 0.61 72.21 0.61L72.21 0.61Q68.57 0.61 65.91-1.05 63.25-2.71 61.81-5.57 60.37-8.42 60.37-12.01L60.37-12.01Q60.37-15.58 61.82-18.46 63.28-21.34 65.97-23.02 68.67-24.71 72.36-24.71L72.36-24.71Q76.09-24.71 78.73-23 81.37-21.29 82.76-18.41 84.15-15.53 84.15-12.01ZM78.95-12.06L78.95-12.06Q78.95-14.79 78.23-17.16 77.51-19.53 76.03-21 74.56-22.46 72.31-22.46L72.31-22.46Q69.99-22.46 68.51-21 67.04-19.53 66.33-17.16 65.62-14.79 65.62-12.06L65.62-12.06Q65.62-9.35 66.34-6.97 67.06-4.59 68.54-3.13 70.01-1.66 72.26-1.66L72.26-1.66Q74.56-1.66 76.03-3.13 77.51-4.59 78.23-6.96 78.95-9.33 78.95-12.06ZM104.9-23.95L104.9-18.99 102.95-18.99Q102.48-19.56 101.84-19.96 101.19-20.36 100.26-20.36L100.26-20.36Q99.06-20.36 97.81-19.53 96.55-18.7 95.26-17.26L95.26-17.26 95.26-3.2Q95.26-2.15 96.31-2.1L96.31-2.1 99.6-1.95 99.6 0 87.1 0 87.1-1.9 89.57-2.1Q90.01-2.15 90.31-2.44 90.62-2.73 90.62-3.2L90.62-3.2 90.62-20.56 87-20.56 87-22.19 93.21-24.1 95.26-24.1 95.26-19.65Q95.99-20.46 97.09-21.66 98.19-22.85 99.43-23.78 100.68-24.71 101.85-24.71L101.85-24.71Q102.63-24.71 103.53-24.46 104.44-24.22 104.9-23.95L104.9-23.95ZM130.8-23.19L130.8-20.75 125.82-20.75Q126.38-19.85 126.77-18.77 127.16-17.7 127.16-16.26L127.16-16.26Q127.16-13.77 125.8-12 124.43-10.23 122.19-9.28 119.96-8.33 117.35-8.33L117.35-8.33Q117.1-8.33 116.86-8.33 116.62-8.33 116.37-8.35L116.37-8.35Q116.05-7.84 115.94-7.25 115.83-6.67 115.83-6.15L115.83-6.15Q115.83-5.69 115.88-5.37 115.93-5.05 115.96-5L115.96-5 116.66-4.93Q118.42-4.76 120.61-4.44 122.79-4.13 124.83-3.42 126.87-2.71 128.19-1.42 129.51-0.12 129.51 2L129.51 2Q129.51 4.37 127.77 6.53 126.04 8.69 123.1 10.07 120.16 11.45 116.52 11.45L116.52 11.45Q112.05 11.45 109.58 9.41 107.12 7.37 107.12 4.35L107.12 4.35Q107.12 2.17 108.41 0.48 109.71-1.22 112.42-1.71L112.42-1.71Q112.15-2.49 112.03-2.83 111.9-3.17 111.9-4L111.9-4Q111.9-4.98 112.5-6.16 113.1-7.35 114.42-8.69L114.42-8.69Q111.93-9.25 110.07-11.22 108.22-13.18 108.22-16.21L108.22-16.21Q108.22-20.14 110.99-22.42 113.76-24.71 118.25-24.71L118.25-24.71Q120.03-24.71 121.56-24.18 123.09-23.66 124.06-23.19L124.06-23.19 130.8-23.19ZM122.4-16.55L122.4-16.55Q122.4-18.14 121.87-19.53 121.33-20.92 120.3-21.79 119.28-22.66 117.76-22.66L117.76-22.66Q115.66-22.66 114.33-21.03 113-19.41 113-16.5L113-16.5Q113-13.99 114.2-12.19 115.4-10.4 117.76-10.4L117.76-10.4Q120.01-10.4 121.21-12.21 122.4-14.01 122.4-16.55ZM125.21 3.34L125.21 3.34Q125.21 1.78 124.12 0.93 123.04 0.07 121.43-0.34 119.81-0.76 118.18-0.94 116.54-1.12 115.42-1.34L115.42-1.34Q113.25-0.56 112.43 0.78 111.61 2.12 111.61 3.34L111.61 3.34Q111.61 4.54 112.31 5.9 113 7.25 114.46 8.2 115.91 9.16 118.15 9.16L118.15 9.16Q120.55 9.16 122.11 8.2 123.67 7.25 124.44 5.9 125.21 4.54 125.21 3.34ZM156.26-1.95L156.26 0 148.86 0 148.21-2.95Q148.21-2.95 147.46-2.42 146.72-1.88 145.5-1.17 144.27-0.46 142.8 0.07 141.32 0.61 139.86 0.61L139.86 0.61Q137.15 0.61 135.25-1.2 133.36-3 133.36-6.15L133.36-6.15Q133.36-7.54 133.86-8.74 134.36-9.94 135.86-11.02 137.37-12.11 140.33-13.15 143.3-14.18 148.21-15.26L148.21-15.26 148.21-17.41Q148.21-22.34 143.54-22.34L143.54-22.34Q142.25-22.34 141.31-22.09 140.37-21.85 140-21.7L140-21.7 140-17.36 136.36-17.36Q135.68-17.36 135.09-17.61 134.51-17.87 134.51-18.8L134.51-18.8Q134.51-20.85 136.07-22.16 137.63-23.46 140.04-24.08 142.44-24.71 144.91-24.71L144.91-24.71Q148.01-24.71 149.72-23.74 151.43-22.78 152.11-21.08 152.8-19.38 152.8-17.21L152.8-17.21 152.8-3.2Q152.8-2.73 153.1-2.44 153.41-2.15 153.84-2.1L153.84-2.1 156.26-1.95ZM148.21-4.71L148.21-4.71 148.21-13.35Q144.84-12.52 142.85-11.68 140.86-10.84 139.88-10 138.9-9.16 138.6-8.29 138.29-7.42 138.29-6.49L138.29-6.49Q138.29-4.96 139.28-3.65 140.27-2.34 142.05-2.34L142.05-2.34Q143.05-2.34 144.13-2.7 145.2-3.05 146.13-3.53 147.06-4 147.63-4.36 148.21-4.71 148.21-4.71ZM175.28-7.25L175.28-7.25Q175.28-3.56 172.74-1.48 170.2 0.61 165.73 0.61L165.73 0.61Q163.44 0.61 161.5 0.13 159.56-0.34 158.8-0.66L158.8-0.66 158.8-7.3 161.34-7.3 161.95-3.05Q162.7-2.56 163.82-2.11 164.93-1.66 166.39-1.66L166.39-1.66Q168.54-1.66 169.71-2.86 170.88-4.05 170.88-5.54L170.88-5.54Q170.88-7.52 169.47-8.53 168.05-9.55 165.44-10.79L165.44-10.79 164.78-11.11Q162.05-12.4 160.59-13.81 159.14-15.21 159.14-17.46L159.14-17.46Q159.14-20.8 161.48-22.75 163.83-24.71 168.15-24.71L168.15-24.71Q170.35-24.71 172.07-24.3 173.79-23.9 174.55-23.56L174.55-23.56 174.55-17.65 171.93-17.65 171.54-21.14Q171.01-21.56 169.96-21.92 168.91-22.29 167.73-22.29L167.73-22.29Q165.68-22.29 164.68-21.35 163.68-20.41 163.68-18.95L163.68-18.95Q163.68-17.26 164.89-16.27 166.1-15.28 169.27-13.84L169.27-13.84Q171.88-12.65 173.58-11.17 175.28-9.69 175.28-7.25ZM193.63-3.05L193.63-3.05 193.63-1.05Q193.63-1.05 192.69-0.63 191.75-0.22 190.23 0.2 188.7 0.61 186.9 0.61L186.9 0.61Q184.09 0.61 182.81-0.72 181.53-2.05 181.53-5L181.53-5 181.53-21.61 178.33-21.61 178.33-23.24 181.75-24.85 183.99-30.15 186.19-30.15 186.19-24.1 193.24-24.1 193.24-21.61 186.19-21.61 186.19-7.64Q186.19-4.66 187.19-3.43 188.19-2.2 190.19-2.2L190.19-2.2Q191.66-2.2 192.65-2.62 193.63-3.05 193.63-3.05Z" opacity="1" transform="matrix(1,0,0,1,0,0)" fill="white" class="wordmark-text-0" id="SvgjsPath3322"></path></svg></g></svg></g></svg></g></svg></g><g transform="matrix(1,0,0,1,418.90161259533613,0)"><svg viewBox="0 0 136.87705911127992 136.87705911127992" height="136.87705911127992" width="136.87705911127992"><g data-palette-color="url(#25850716-3bc1-4478-9cde-10a54f75c57a)"><rect width="37.41306282374985" height="136.87705911127992" fill="black" stroke="transparent" x="0" fill-opacity="1"></rect><rect width="37.41306282374985" height="136.87705911127992" fill="black" stroke="transparent" x="45.62568637042664" fill-opacity="0.75"></rect><rect width="37.41306282374985" height="136.87705911127992" fill="black" stroke="transparent" x="91.25137274085328" fill-opacity="0.5"></rect></g></svg></g></svg></g><defs><mask></mask></defs></svg><rect width="395.52" height="97.40858578371562" fill="black" stroke="none" visibility="hidden"></rect></g></mask><linearGradient x1="0" x2="1" y1="0.548" y2="0.55" id="af947b13-27a6-494e-b3fd-601f89cd3599"><stop stop-color="#ff6cab" offset="0"></stop><stop stop-color="#7366ff" offset="1"></stop></linearGradient><rect width="395.52" height="97.40858578371562" fill="url(#af947b13-27a6-494e-b3fd-601f89cd3599)" mask="url(#b7075167-8bba-4071-a977-b13482bd1f73)" data-fill-palette-color="primary"></rect><mask id="f20d9541-255a-4c93-9d86-8e12f03f2b24"><g id="SvgjsG3340"><svg viewBox="0 0 395.52 97.40858578371562" height="97.40858578371562" width="395.52"><g><svg viewBox="0 0 555.778671706616 136.87705911127992" height="97.40858578371562" width="395.52"><g transform="matrix(1,0,0,1,0,18.917162293961262)"><svg viewBox="0 0 395.52000000000004 99.0427345233574" height="99.0427345233574" width="395.52000000000004"><g id="SvgjsG3339"><svg viewBox="0 0 395.52000000000004 99.0427345233574" height="99.0427345233574" width="395.52000000000004" id="SvgjsSvg3338"><g><svg viewBox="0 0 395.52000000000004 99.0427345233574" height="99.0427345233574" width="395.52000000000004"><g transform="matrix(1,0,0,1,0,0)"><svg width="395.52000000000004" viewBox="0.81 -36.84 192.82 48.290000000000006" height="99.0427345233574" data-palette-color="url(#af947b13-27a6-494e-b3fd-601f89cd3599)"></svg></g></svg></g></svg></g></svg></g><g transform="matrix(1,0,0,1,418.90161259533613,0)"><svg viewBox="0 0 136.87705911127992 136.87705911127992" height="136.87705911127992" width="136.87705911127992"><g data-palette-color="url(#25850716-3bc1-4478-9cde-10a54f75c57a)"><rect width="37.41306282374985" height="136.87705911127992" fill="white" stroke="transparent" x="0" fill-opacity="1"></rect><rect width="37.41306282374985" height="136.87705911127992" fill="white" stroke="transparent" x="45.62568637042664" fill-opacity="0.75"></rect><rect width="37.41306282374985" height="136.87705911127992" fill="white" stroke="transparent" x="91.25137274085328" fill-opacity="0.5"></rect></g></svg></g></svg></g><defs><mask></mask></defs><mask><g id="SvgjsG3337"><svg viewBox="0 0 395.52 97.40858578371562" height="97.40858578371562" width="395.52"><g><svg viewBox="0 0 555.778671706616 136.87705911127992" height="97.40858578371562" width="395.52"><g transform="matrix(1,0,0,1,0,18.917162293961262)"><svg viewBox="0 0 395.52000000000004 99.0427345233574" height="99.0427345233574" width="395.52000000000004"><g id="SvgjsG3336"><svg viewBox="0 0 395.52000000000004 99.0427345233574" height="99.0427345233574" width="395.52000000000004" id="SvgjsSvg3335"><g><svg viewBox="0 0 395.52000000000004 99.0427345233574" height="99.0427345233574" width="395.52000000000004"><g transform="matrix(1,0,0,1,0,0)"><svg width="395.52000000000004" viewBox="0.81 -36.84 192.82 48.290000000000006" height="99.0427345233574" data-palette-color="url(#af947b13-27a6-494e-b3fd-601f89cd3599)"><path d="M29.15-33.54L29.15-25.56 26.2-25.56 25.49-30.25Q25.32-31.1 24.66-31.1L24.66-31.1 17.5-31.1 17.5-3.44Q17.5-3.08 17.76-2.73 18.02-2.39 18.55-2.34L18.55-2.34 21.75-2.15 21.75 0 8.2 0 8.2-2.15 11.4-2.34Q11.94-2.39 12.19-2.73 12.45-3.08 12.45-3.44L12.45-3.44 12.45-31.1 5.25-31.1Q4.52-31.1 4.39-30.25L4.39-30.25 3.71-25.56 0.81-25.56 0.81-33.54 29.15-33.54ZM57.49-1.95L57.49 0 46.36 0 46.36-1.95 48.41-2.1Q48.85-2.15 49.18-2.44 49.51-2.73 49.51-3.2L49.51-3.2 49.51-16.09Q49.51-18.24 48.48-19.64 47.46-21.04 44.55-21.04L44.55-21.04Q43.23-21.04 41.71-20.63 40.18-20.21 39.11-19.6L39.11-19.6 39.11-3.2Q39.11-2.17 40.11-2.1L40.11-2.1 42.26-1.95 42.26 0 31 0 31-1.95 33.4-2.1Q34.45-2.17 34.45-3.2L34.45-3.2 34.45-33.25 30.71-33.25 30.71-34.91 37.11-36.84 39.11-36.84 39.11-21.61Q40.01-22.17 41.45-22.89 42.89-23.61 44.48-24.16 46.07-24.71 47.36-24.71L47.36-24.71Q50.24-24.71 52.19-22.85 54.15-21 54.15-17.14L54.15-17.14 54.15-3.2Q54.15-2.73 54.48-2.44 54.81-2.15 55.25-2.1L55.25-2.1 57.49-1.95ZM84.15-12.01L84.15-12.01Q84.15-8.47 82.69-5.6 81.22-2.73 78.55-1.06 75.87 0.61 72.21 0.61L72.21 0.61Q68.57 0.61 65.91-1.05 63.25-2.71 61.81-5.57 60.37-8.42 60.37-12.01L60.37-12.01Q60.37-15.58 61.82-18.46 63.28-21.34 65.97-23.02 68.67-24.71 72.36-24.71L72.36-24.71Q76.09-24.71 78.73-23 81.37-21.29 82.76-18.41 84.15-15.53 84.15-12.01ZM78.95-12.06L78.95-12.06Q78.95-14.79 78.23-17.16 77.51-19.53 76.03-21 74.56-22.46 72.31-22.46L72.31-22.46Q69.99-22.46 68.51-21 67.04-19.53 66.33-17.16 65.62-14.79 65.62-12.06L65.62-12.06Q65.62-9.35 66.34-6.97 67.06-4.59 68.54-3.13 70.01-1.66 72.26-1.66L72.26-1.66Q74.56-1.66 76.03-3.13 77.51-4.59 78.23-6.96 78.95-9.33 78.95-12.06ZM104.9-23.95L104.9-18.99 102.95-18.99Q102.48-19.56 101.84-19.96 101.19-20.36 100.26-20.36L100.26-20.36Q99.06-20.36 97.81-19.53 96.55-18.7 95.26-17.26L95.26-17.26 95.26-3.2Q95.26-2.15 96.31-2.1L96.31-2.1 99.6-1.95 99.6 0 87.1 0 87.1-1.9 89.57-2.1Q90.01-2.15 90.31-2.44 90.62-2.73 90.62-3.2L90.62-3.2 90.62-20.56 87-20.56 87-22.19 93.21-24.1 95.26-24.1 95.26-19.65Q95.99-20.46 97.09-21.66 98.19-22.85 99.43-23.78 100.68-24.71 101.85-24.71L101.85-24.71Q102.63-24.71 103.53-24.46 104.44-24.22 104.9-23.95L104.9-23.95ZM130.8-23.19L130.8-20.75 125.82-20.75Q126.38-19.85 126.77-18.77 127.16-17.7 127.16-16.26L127.16-16.26Q127.16-13.77 125.8-12 124.43-10.23 122.19-9.28 119.96-8.33 117.35-8.33L117.35-8.33Q117.1-8.33 116.86-8.33 116.62-8.33 116.37-8.35L116.37-8.35Q116.05-7.84 115.94-7.25 115.83-6.67 115.83-6.15L115.83-6.15Q115.83-5.69 115.88-5.37 115.93-5.05 115.96-5L115.96-5 116.66-4.93Q118.42-4.76 120.61-4.44 122.79-4.13 124.83-3.42 126.87-2.71 128.19-1.42 129.51-0.12 129.51 2L129.51 2Q129.51 4.37 127.77 6.53 126.04 8.69 123.1 10.07 120.16 11.45 116.52 11.45L116.52 11.45Q112.05 11.45 109.58 9.41 107.12 7.37 107.12 4.35L107.12 4.35Q107.12 2.17 108.41 0.48 109.71-1.22 112.42-1.71L112.42-1.71Q112.15-2.49 112.03-2.83 111.9-3.17 111.9-4L111.9-4Q111.9-4.98 112.5-6.16 113.1-7.35 114.42-8.69L114.42-8.69Q111.93-9.25 110.07-11.22 108.22-13.18 108.22-16.21L108.22-16.21Q108.22-20.14 110.99-22.42 113.76-24.71 118.25-24.71L118.25-24.71Q120.03-24.71 121.56-24.18 123.09-23.66 124.06-23.19L124.06-23.19 130.8-23.19ZM122.4-16.55L122.4-16.55Q122.4-18.14 121.87-19.53 121.33-20.92 120.3-21.79 119.28-22.66 117.76-22.66L117.76-22.66Q115.66-22.66 114.33-21.03 113-19.41 113-16.5L113-16.5Q113-13.99 114.2-12.19 115.4-10.4 117.76-10.4L117.76-10.4Q120.01-10.4 121.21-12.21 122.4-14.01 122.4-16.55ZM125.21 3.34L125.21 3.34Q125.21 1.78 124.12 0.93 123.04 0.07 121.43-0.34 119.81-0.76 118.18-0.94 116.54-1.12 115.42-1.34L115.42-1.34Q113.25-0.56 112.43 0.78 111.61 2.12 111.61 3.34L111.61 3.34Q111.61 4.54 112.31 5.9 113 7.25 114.46 8.2 115.91 9.16 118.15 9.16L118.15 9.16Q120.55 9.16 122.11 8.2 123.67 7.25 124.44 5.9 125.21 4.54 125.21 3.34ZM156.26-1.95L156.26 0 148.86 0 148.21-2.95Q148.21-2.95 147.46-2.42 146.72-1.88 145.5-1.17 144.27-0.46 142.8 0.07 141.32 0.61 139.86 0.61L139.86 0.61Q137.15 0.61 135.25-1.2 133.36-3 133.36-6.15L133.36-6.15Q133.36-7.54 133.86-8.74 134.36-9.94 135.86-11.02 137.37-12.11 140.33-13.15 143.3-14.18 148.21-15.26L148.21-15.26 148.21-17.41Q148.21-22.34 143.54-22.34L143.54-22.34Q142.25-22.34 141.31-22.09 140.37-21.85 140-21.7L140-21.7 140-17.36 136.36-17.36Q135.68-17.36 135.09-17.61 134.51-17.87 134.51-18.8L134.51-18.8Q134.51-20.85 136.07-22.16 137.63-23.46 140.04-24.08 142.44-24.71 144.91-24.71L144.91-24.71Q148.01-24.71 149.72-23.74 151.43-22.78 152.11-21.08 152.8-19.38 152.8-17.21L152.8-17.21 152.8-3.2Q152.8-2.73 153.1-2.44 153.41-2.15 153.84-2.1L153.84-2.1 156.26-1.95ZM148.21-4.71L148.21-4.71 148.21-13.35Q144.84-12.52 142.85-11.68 140.86-10.84 139.88-10 138.9-9.16 138.6-8.29 138.29-7.42 138.29-6.49L138.29-6.49Q138.29-4.96 139.28-3.65 140.27-2.34 142.05-2.34L142.05-2.34Q143.05-2.34 144.13-2.7 145.2-3.05 146.13-3.53 147.06-4 147.63-4.36 148.21-4.71 148.21-4.71ZM175.28-7.25L175.28-7.25Q175.28-3.56 172.74-1.48 170.2 0.61 165.73 0.61L165.73 0.61Q163.44 0.61 161.5 0.13 159.56-0.34 158.8-0.66L158.8-0.66 158.8-7.3 161.34-7.3 161.95-3.05Q162.7-2.56 163.82-2.11 164.93-1.66 166.39-1.66L166.39-1.66Q168.54-1.66 169.71-2.86 170.88-4.05 170.88-5.54L170.88-5.54Q170.88-7.52 169.47-8.53 168.05-9.55 165.44-10.79L165.44-10.79 164.78-11.11Q162.05-12.4 160.59-13.81 159.14-15.21 159.14-17.46L159.14-17.46Q159.14-20.8 161.48-22.75 163.83-24.71 168.15-24.71L168.15-24.71Q170.35-24.71 172.07-24.3 173.79-23.9 174.55-23.56L174.55-23.56 174.55-17.65 171.93-17.65 171.54-21.14Q171.01-21.56 169.96-21.92 168.91-22.29 167.73-22.29L167.73-22.29Q165.68-22.29 164.68-21.35 163.68-20.41 163.68-18.95L163.68-18.95Q163.68-17.26 164.89-16.27 166.1-15.28 169.27-13.84L169.27-13.84Q171.88-12.65 173.58-11.17 175.28-9.69 175.28-7.25ZM193.63-3.05L193.63-3.05 193.63-1.05Q193.63-1.05 192.69-0.63 191.75-0.22 190.23 0.2 188.7 0.61 186.9 0.61L186.9 0.61Q184.09 0.61 182.81-0.72 181.53-2.05 181.53-5L181.53-5 181.53-21.61 178.33-21.61 178.33-23.24 181.75-24.85 183.99-30.15 186.19-30.15 186.19-24.1 193.24-24.1 193.24-21.61 186.19-21.61 186.19-7.64Q186.19-4.66 187.19-3.43 188.19-2.2 190.19-2.2L190.19-2.2Q191.66-2.2 192.65-2.62 193.63-3.05 193.63-3.05Z" opacity="1" transform="matrix(1,0,0,1,0,0)" fill="black" class="wordmark-text-0" id="SvgjsPath3334"></path></svg></g></svg></g></svg></g></svg></g><g transform="matrix(1,0,0,1,418.90161259533613,0)"><svg viewBox="0 0 136.87705911127992 136.87705911127992" height="136.87705911127992" width="136.87705911127992"><g data-palette-color="url(#25850716-3bc1-4478-9cde-10a54f75c57a)"><rect width="37.41306282374985" height="136.87705911127992" fill="black" stroke="transparent" x="0" fill-opacity="1"></rect><rect width="37.41306282374985" height="136.87705911127992" fill="black" stroke="transparent" x="45.62568637042664" fill-opacity="0.75"></rect><rect width="37.41306282374985" height="136.87705911127992" fill="black" stroke="transparent" x="91.25137274085328" fill-opacity="0.5"></rect></g></svg></g></svg></g><defs><mask></mask></defs></svg><rect width="395.52" height="97.40858578371562" fill="black" stroke="none" visibility="hidden"></rect></g></mask></svg><rect width="395.52" height="97.40858578371562" fill="black" stroke="none" visibility="hidden"></rect></g></mask><linearGradient x1="0" x2="1" y1="0.548" y2="0.55" id="25850716-3bc1-4478-9cde-10a54f75c57a"><stop stop-color="#ff6cab" offset="0"></stop><stop stop-color="#7366ff" offset="1"></stop></linearGradient><rect width="395.52" height="97.40858578371562" fill="url(#25850716-3bc1-4478-9cde-10a54f75c57a)" mask="url(#f20d9541-255a-4c93-9d86-8e12f03f2b24)" data-fill-palette-color="accent"></rect></svg><rect width="395.52" height="97.40858578371562" fill="none" stroke="none" visibility="hidden"></rect></g></svg></g></svg>